/* XPM */
static char *result[] = {
/* columns rows colors chars-per-pixel */
"88 113 37 1 ",
"  c black",
". c #676654",
"X c #B0C87D",
"o c #B1C87D",
"O c #B0C97D",
"+ c #B1C97D",
"@ c #B2CA7D",
"# c #B0C87E",
"$ c #B1C87E",
"% c #B0C97E",
"& c #B1C97E",
"* c #B0C87F",
"= c #B1C87F",
"- c #B0C97F",
"; c #B1C97F",
": c #B2C97E",
"> c #B2C97F",
", c #B1CA7E",
"< c #B1CA7F",
"1 c #B2CA7E",
"2 c #B2CA7F",
"3 c #5C738D",
"4 c #5D738D",
"5 c #5C728E",
"6 c #5D728E",
"7 c #5C738E",
"8 c #5D738E",
"9 c #5D738F",
"0 c #5E728E",
"q c #5E738E",
"w c #5E738F",
"e c #5D748E",
"r c #5D748F",
"t c #5E748E",
"y c #5E748F",
"u c #E1DFC1",
"i c None",
/* pixels */
"iiiiiiiiiiiiiiiiiiiiiiiiiiiiiiiii:&:>:&=iiiiiiiiiiiiiiiiiiiiiiiiiiiiiiiiiiiiiiiiiiiiiiii",
"iiiiiiiiiiiiiiiiiiiiiiiiiiii<&>,::&&&&&$:,&&oiiiiiiiiiiiiiiiiiiiiiiiiiiiiiiiiiiiiiiiiiii",
"iiiiiiiiiiiiiiiiiiiiiiiii&&:&&&&&&&&&&&&&&&&&,&iiiiiiiiiiiiiiiiiiiiiiiiiiiiiiiiiiiiiiiii",
"iiiiiiiiiiiiiiiiiiiiii<&:&&&&&&&&&&&&&&&&&&&+&&:&=iiiiiiiiiiiiiiiiiiiiiiiiiiiiiiiiiiiiii",
"iiiiiiiiiiiiiiiiiiiio&&&&&&&&&&&&&&&&&&&&&&&&&&&&o$&iiiiiiiiiiiiiiiiiiiiiiiiiiiiiiiiiiii",
"iiiiiiiiiiiiiiiiiii$+&&&&&&&&&&&&&&&&&&&&&&&&&&&&&&1>iiiiiiiiiiiiiiiiiiiiiiiiiiiiiiiiiii",
"iiiiiiiiiiiiiiiiii&%&&&&&&&&&&&&&&&&&&&&&&&&&     &&%&iiiiiiiiiiiiiiiiiiiiiiiiiiiiiiiiii",
"iiiiiiiiiiiiiiiii&%&&&&&&&&&&&&&&&&&&&&&&&&&&&&&&&&&&&&iiiiiiiiiiiiiiiiiiiiiiiiiiiiiiiii",
"iiiiiiiiiiiiiiii&&&&&&&&&&&&&&&&&&&&&&&&&&&&&&&&&&&&&,+iiiiiiiiiiiiii: iiiiiiiiiiiiiiiii",
"iiiiiiiiiiiiiiii,&&&&&&&&&&&&&&&&&&&&&&&&&    &&      &iiiiiiiiiiiii&+ iiiiiiiiiiiiiiiii",
"iiiiiiiiiiiiiii&&&&&&&&&&&&&&&&&&&&&&&&&&&&&&    &&&&&o:iiiiiiiiii-&&& iiiiiiiiiiiiiiiii",
"iiiiiiiiiiiiiii;&&&&&&&&&&&&&&&&&&&&& &&&&&&&&&&&&&&&&&&iiiiiiiii#&&+      <iiiiiiiiiiii",
"iiiiiiiiiiiiiii:&&&&&&&&&&&&&&&&&&&&&      &&&&&&&&   &:iiiiiiii:&,:  &&,&&& iiiiiiiiiii",
"iiiiiiiiiiiiiii>&&&&&&&&&&&&&&&&&&&&&&&&     &&&&   &&&>iiiiiiiO&&&  &&&+++  iiiiiiiiiii",
"iiiiiiiiiiiiiii$&&&&&&&&&&&&&&&&&&&&&&&&&&&&  &&  &&&&&>iiiiii+&:&  &&&&&&  iiiiiiiiiiii",
"iiiiiiiiiiiiiii&o&&&&&&&&&&&&&&&&&&&&& &&&&& &&&&&    &$iiiii&&&&& &&&&   iiiiiiiiiiiiii",
"iiiiiiiiiiiiii &+&&&&&&&&&&&&&&&&&&&&& &&&&&  &&& uuuu &iiii#+&&            iiiiiiiiiiii",
"iiiiiiiiiiiiii :&&&&&&&&&&&&&&&&&&&&&& &&&&&& && uuuuu   ii:,%&& &&&&&&&&&& iiiiiiiiiiii",
"iiiiiiiiiiiiii&&&&&&&& &&&&&&&&&&&&&&  &&&&&&  & uuuuu  $&&&$&&& &&&&&&&&&&oiiiiiiiiiiii",
"iiiiiiiiiiiiii:o&&&&&&& &&&&&&&&&&&&&          & ..uuu  &:O&&&&&  &&    &&&iiiiiiiiiiiii",
"iiiiiiiiiiiii $,&&&&&&&  &&&&&&&&&&&& ....uuuu & ...uu  &&&&&&&&&    &&   iiiiiiiiiiiiii",
"iiiiiiiiiiiii &:&&&&&&&& &&&&&&&&&&&& ....uuu  & ...uu  && &&&&&&&&&&,&  iiiiiiiiiiiiiii",
"iiiiiiiiiiiii &+&&&&&&& &&&&&& &&&&&& uuuuuuu &&    u   && &&&&&&&&&&&<iiiiiiiiiiiiiiiii",
"iiiiiiiiiiiiii&o&&&&&&&&&&&&&& &&&&&& uuuuuuu && &&   & &            &iiiiiiiiiiiiiiiiii",
"iiiiiiiiiiiiii<&&&&&&&&&&&&&&& &&&&&&  uuuuu &&& &&&&&& & iiii    ii  iiiiiiiiiiiiiiiiii",
"iiiiiiiiiiiiii +&&&&&&&&&&&&&& &&&&&&&  uuu  &&& &&&&&&   ii   &&   iiiiiiiiiiiiiiiiiiii",
"iiiiiiiiiiiiiii %&&&&&&&&&&&&&  &&&&&&&     &&&& &  &&&  i   &&&&+& iiiiiiiiiiiiiiiiiiii",
"iiiiiiiiiiiiiiii %&&&&&&&&&&&&& &&&&&&&&&&  &&&&  &  &     &&&&&&&& iiiiiiiiiiiiiiiiiiii",
"iiiiiiiiiiiiiiiii &&         && &&&&&&&&   &&&&&& &&    &&&&&&&  &&%%iiiiiiiiiiiiiiiiiii",
"iiiiiiiiiiiiiiiiii   &&&&&&&&     &&&&&  &&& &&&&    &&&&&&&:&   &:&&2%iiiiiiiiiiiiiiiii",
"iiiiiiiiiiiiiiiiii  &&&&&&&&&&&&&   &&&&&&&&     &&&&&&&&&+O+ i  &&&%:&1$::&&& %&&::$:1i",
"iiiiiiiiiiiiiiiiii &&&&&&&&&&&&&&&&      &&&&&& &&&&&&&&&&&  ii  &&&&&+o&&&&&$    &&&& i",
"iiiiiiiiiiiiiiiii;&&&&&&&&&&&&&&&&&&&&&&        &&&&&&&++$ iiiii  &&&&&&&&&&&&& &      i",
"iiiiiiiiiiiiiiiii&:&&&&&&&&&&&&&&&&&&&&&&&&&&&&&&&&&&&&&; iiiiii:  &&&&&o&&&&&o  &&&&&Xi",
"iiiiiiiiiiiiiiii&&+&&&&&&&&&&&&&&&&&&&&&&&&&&&&&&&&&&&%&iiiiiiiii+           $&&  &1*iii",
"iiiiiiiiiiiiiii<&&&&&&&&&&&&&&&&&&&&&&&&&&&&&&&&&&&&&%&iiiiiiiiiii<&&&2&iiiiiiiO& ,>iiii",
"iiiiiiiiiiiiiii&&&&&&&&&&&&&&&&&&&&&&&&&&&&&&&&&&&&&%&iiiiiiiiiiiiiiiiiiiiiiiiii+  iiiii",
"iiiiiiiiiiiiii &+&&&&&&&&       &&&&&&&&&&&&&&&&&&&%&iiiiiiiiiiiiiiiiiiiiiiiiiiiiiiiiiii",
"iiiiiiiiiiiiii1O&&&&&&&&& &&&&&   &&&&&:&:&&&&&&&&%&iiiiiiiiiiiiiiiiiiiiiiiiiiiiiiiiiiii",
"iiiiiiiiiiiiii&o&&&&&&&&&&&&&&&&&    O:&%&&&&&&&&&&iiiiiiiiiiiiiiiiiiiiiiiiiiiiiiiiiiiii",
"iiiiiiiiiiiii &+&&&&&&&&&&&&&&&&&&%         :>>:;oiiiiiiiiiiiiiiiiiiiiiiiiiiiiiiiiiiiiii",
"iiiiiiiiiiiii &&&&&&&&&&&&& &&&&+% iiiiiiiiiiiiiiiiiiiiiiiiiiiiiiiiiiiiiiiiiiiiiiiiiiiii",
"iiiiiiiiiiiii&&&&&&&&&&& && &&&&o,iiiiiiiiiiiiiiiiiiiiiiiiiiiiiiiiiiiiiiiiiiiiiiiiiiiiii",
"iiiiiiiiiiiii>&&&&&&&&&&   &&&&&+1iiiiiiiiiiiiiiiiiiiiiiiiiiiiiiiiiiiiiiiiiiiiiiiiiiiiii",
"iiiiiiiiiiiii>&&&&&&&&&&&&  &&&&&iiiiiiiiiiiiiiiiiiiiiiiiiiiiiiiiiiiiiiiiiiiiiiiiiiiiiii",
"iiiiiiiiiiiii>&&&&&&&&&&&&     &:iiiiiiiiiiiiiiiiiiiiiiiiiiiiiiiiiiiiiiiiiiiiiiiiiiiiiii",
"iiiiiiiiiiiii>&&&&&&   &&&  &&   iiiiiiiiiiiiiiiiiiiiiiiiiiiiiiiiiiiiiiiiiiiiiiiiiiiiiii",
"iiiiiiiiiiiii>&&&&&&  &&& &&&&& iiiiiiiiiiiiiiiiiiiiiiiiiiiiiiiiiiiiiiiiiiiiiiiiiiiiiiii",
"iiiiiiiiiiiii>&&&&& &&&& &&&&&: iiiiiiiiiiiiiiiiiiiiiiiiiiiiiiiiiiiiiiiiiiiiiiiiiiiiiiii",
"iiiiiiiiiiiii>&&&&&&&&& &&&&&& iiiiiiiiiiiiiiiiiiiiiiiiiiiiiiiiiiiiiiiiiiiiiiiiiiiiiiiii",
"iiiiiiiiiiiii>&&&&&&&& &&&&&&&iiiiiiiiiiiiiiiiiiiiiiiiiiiiiiiiiiiiiiiiiiiiiiiiiiiiiiiiii",
"iiiiiiiiiiiii &&&&&&&& &&&&&$ iiiiiiiiiiiiiiiiiiiiiiiiiiiiiiiiiiiiiiiiiiiiiiiiiiiiiiiiii",
"iiiiiiiiiiiii &&&&&&& &&&& &:iiiiiiiiiiiiiiiiiiiiiiiiiiiiiiiiiiiiiiiiiiiiiiiiiiiiiiiiiii",
"iiiiiiiiiiiii &&&&&&& &&&& &&iiiiiiiiiiiiiiiiiiiiiiiiiiiiiiiiiiiiiiiiiiiiiiiiiiiiiiiiiii",
"iiiiiiiiiiiii &&&&&&& &&&&&&:iiiiiiiiiiiiiiiiiiiiiiiiiiiiiiiiiiiiiiiiiiiiiiiiiiiiiiiiiii",
"iiiiiiiiiiiii &&&&&&&&&&&&&&&oiiiiiiiiiiiiiiiiiiiiiiiiiiiiiiiiiiiiiiiiiiiiiiiiiiiiiiiiii",
"iiiiiiiiiiiii &&&&&&&&&&&&&&&& iiiiiiiiiiiiiiiiiiiiiiiiiiiiiiiiiiiiiiiiiiiiiiiiiiiiiiiii",
"iiiiiiiiiiiii  &&&&&&&&&&&&&&  iiiiiiiiiiiiiiiiiiiiiiiiiiiiiiiiiiiiiiiiiiiiiiiiiiiiiiiii",
"iiiiiiiiiiiit4     &&&&&&    84tiiiiiiiiiiiiiiiiiiiiiiiiiiiiiiiiiiiiiiiiiiiiiiiiiiiiiiii",
"iiiiiiiiiiiie78888        8 8888iiiiiiiiiiiiiiiiiiiiiiiiiiiiiiiiiiiiiiiiiiiiiiiiiiiiiiii",
"iiiiiiiiiii0858888888888888 88844iiiiiiiiiiiiiiiiiiiiiiiiiiiiiiiiiiiiiiiiiiiiiiiiiiiiiii",
"iiiiiiiiiii8e88888888888888 88888iiiiiiiiiiiiiiiiiiiiiiiiiiiiiiiiiiiiiiiiiiiiiiiiiiiiiii",
"iiiiiiiiiii4888888888888888 888883iiiiiiiiiiiiiiiiiiiiiiiiiiiiiiiiiiiiiiiiiiiiiiiiiiiiii",
"iiiiiiiiiii988888888888888 88888883iiiiiiiiiiiiiiiiiiiiiiiiiiiiiiiiiiiiiiiiiiiiiiiiiiiii",
"iiiiiiiiiii 88888888888888 888888889qiiiiiiiiiiiiiiiiiiiiiiiiiiiiiiiiiiiiiiiiiiiiiiiiiii",
"iiiiiiiiiii 88888888888888 88888888864iiiiiiiiiiiiiiiiiiiiiiiiiiiiiiiiiiiiiiiiiiiiiiiiii",
"iiiiiiiiiii98888888888 888  88888888886iiiiiiiiiiiiiiiiiiiiiiiiiiiiiiiiiiiiiiiiiiiiiiiii",
"iiiiiiiiiii9888888888  888  888888888886iiiiiiiiiiiiiiiiiiiiiiiiiiiiiiiiiiiiiiiiiiiiiiii",
"iiiiiiiiiii98888888   8888  888888888888eiiiiiiiiiiiiiiiiiiiiiiiiiiiiiiiiiiiiiiiiiiiiiii",
"iiiiiiiiiii98888    8888888  888888888884wiiiiiiiiiiiiiiiiiiiiiiiiiiiiiiiiiiiiiiiiiiiiii",
"iiiiiiiiiii9888888888888888  8888888888868wiiiiiiiiiiiiiiiiiiiiiiiiiiiiiiiiiiiiiiiiiiiii",
"iiiiiiiiiii9888888888888888  88888888888864eiiiiiiiiiiiiiiiiiiiiiiiiiiiiiiiiiiiiiiiiiiii",
"iiiiiiiiiii9888888888888888   88888888888888tiiiiiiiiiiiiiiiiiiiiiiiiiiiiiiiiiiiiiiiiiii",
"iiiiiiiiiii988888888888888    888888888888888iiiiiiiiiiiiiiiiiiiiiiiiiiiiiiiiiiiiiiiiiii",
"iiiiiiiiiii988888888888    8888888888888888687iiiiiiiiiiiiiiiiiiiiiiiiiiiiiiiiiiiiiiiiii",
"iiiiiiiiiii 88888888888  i  88888888888888898 iiiiiiiiiiiiiiiiiiiiiiiiiiiiiiiiiiiiiiiiii",
"iiiiiiiiiii 88888888888  iii  88888888888888  iiiiiiiiiiiiiiiiiiiiiiiiiiiiiiiiiiiiiiiiii",
"iiiiiiiiiii y8888888888 iiiii 888888888888   iiiiiiiiiiiiiiiiiiiiiiiiiiiiiiiiiiiiiiiiiii",
"iiiiiiiiiii 86888888888 iiiiii 8888888888  +O iiiiiiiiiiiiiiiiiiiiiiiiiiiiiiiiiiiiiiiiii",
"iiiiiiiiiii 88888888888 iiiiii  88 88888 &&&:@iiiiiiiiiiiiiiiiiiiiiiiiiiiiiiiiiiiiiiiiii",
"iiiiiiiiiiii6888888888  iiiiiii  8   88 &&&&&&iiiiiiiiiiiiiiiiiiiiiiiiiiiiiiiiiiiiiiiiii",
"iiiiiiiiiii 8688888888  iiiiiiii   i    &&&&:#Oiiiiiiiiiiiiiiiiiiiiiiiiiiiiiiiiiiiiiiiii",
"iiiiiiiiiii 6888888888 iiiiiiiiii  i   &&&&&++&iiiiiiiiiiiiiiiiiiiiiiiiiiiiiiiiiiiiiiiii",
"iiiiiiiiiii 8888888888 iiiiiiiiii  i &&&&&&+ Xiiiiiiiiiiiiiiiiiiiiiiiiiiiiiiiiiiiiiiiiii",
"iiiiiiiiiii08888888888 iiiiiiiiiiiii &&&&&+, iiiiiiiiiiiiiiiiiiiiiiiiiiiiiiiiiiiiiiiiiii",
"iiiiiiiiiii8888888888  iiiiiiiiiiiii &&&&&+:iiiiiiiiiiiiiiiiiiiiiiiiiiiiiiiiiiiiiiiiiiii",
"iiiiiiiiii78888888888 iiiiiiiiiiiiii  &&&%& iiiiiiiiiiiiiiiiiiiiiiiiiiiiiiiiiiiiiiiiiiii",
"iiiiiiiii 88888888888 iiiiiiiiiiiiiii &&&&=iiiiiiiiiiiiiiiiiiiiiiiiiiiiiiiiiiiiiiiiiiiii",
"iiiiiiiii388888888888 iiiiiiiiiiiiiii &&&:iiiiiiiiiiiiiiiiiiiiiiiiiiiiiiiiiiiiiiiiiiiiii",
"iiiiiiii6468888888888 iiiiiiiiiiiiiii &&&>iiiiiiiiiiiiiiiiiiiiiiiiiiiiiiiiiiiiiiiiiiiiii",
"iiiiiii5888888888888  iiiiiiiiiiiiiii &&&;iiiiiiiiiiiiiiiiiiiiiiiiiiiiiiiiiiiiiiiiiiiiii",
"iiiiiii8888888888888 iiiiiiiiiiiiiii  &,& iiiiiiiiiiiiiiiiiiiiiiiiiiiiiiiiiiiiiiiiiiiiii",
"iiiiii94888888888888 iiiiiiiiiiiiiii &&&&iiiiiiiiiiiiiiiiiiiiiiiiiiiiiiiiiiiiiiiiiiiiiii",
"iiiiii8888888888888  iiiiiiiiiiiiiii &&$ iiiiiiiiiiiiiiiiiiiiiiiiiiiiiiiiiiiiiiiiiiiiiii",
"iiiii6888888888888  iiiiiiiiiiiiiii &&&:iiiiiiiiiiiiiiiiiiiiiiiiiiiiiiiiiiiiiiiiiiiiiiii",
"iiiir8888888888888 iiiiiiiiiiiiiiii &&&$iiiiiiiiiiiiiiiiiiiiiiiiiiiiiiiiiiiiiiiiiiiiiiii",
"iiiie7888888888888 iiiiiiiiiiiiiiii &&& iiiiiiiiiiiiiiiiiiiiiiiiiiiiiiiiiiiiiiiiiiiiiiii",
"iii44888888888888  iiiiiiiiiiiiiiii &&& iiiiiiiiiiiiiiiiiiiiiiiiiiiiiiiiiiiiiiiiiiiiiiii",
"iii8888  88888888 iiiiiiiiiiiiiiii &&&+ ,*,iiiiiiiiiiiiiiiiiiiiiiiiiiiiiiiiiiiiiiiiiiiii",
"ii44888 888888888 iiiiiiiiiiiiiiii  &&&+:&::%=iiiiiiiiiiiiiiiiiiiiiiiiiiiiiiiiiiiiiiiiii",
"iie88   888888888 iiiiiiiiiiiiiii   &&&&&+&o&$&&iiiiiiiiiiiiiiiiiiiiiiiiiiiiiiiiiiiiiiii",
"i7868 & 888888888 iiiiiiiiiiiiiii & &&&&&&&&&&&&&&iiiiiiiiiiiiiiiiiiiiiiiiiiiiiiiiiiiiii",
"i888  & 888888888 iiiiiiiiiiiiiii &  &&&&&&&&&&&&&&,$iiiiiiiiiiiiiiiiiiiiiiiiiiiiiiiiiii",
"i988 && 88888888  iiiiiiiiiiiiii  && &&&&&&&&&&&&&o&&$$:&&&&iiiiiiiiiiiiiiiiiiiiiiiiiiii",
"i   & & 888888 8 iiiiiiiiiiiiiii &&&&&&&::+&o&&&&&&&O+:::&&&$iiiiiiiiiiiiiiiiiiiiiiiiiii",
"ii    &&  888    iiiiiiiiiiiiiii o&&&&&&+&+&;$>>>>>>>:::::&;iiiiiiiiiiiiiiiiiiiiiiiiiiii",
"ii & &&&&&        iiiiiiiiiiiiii &$>        iiiiiiiiiiiiiiiiiiiiiiiiiiiiiiiiiiiiiiiiiiii",
"i o& &&&&&&&&&&    iiiiiiiiiiiii iiiiiiiiiiiiiiiiiiiiiiiiiiiiiiiiiiiiiiiiiiiiiiiiiiiiiii",
"i +& &&&&&&&&&&&&&   iiiiiiiiiiiiiiiiiiiiiiiiiiiiiiiiiiiiiiiiiiiiiiiiiiiiiiiiiiiiiiiiiii",
" o&&&&&&&&&&&&&&&&&&        iiiiiiiiiiiiiiiiiiiiiiiiiiiiiiiiiiiiiiiiiiiiiiiiiiiiiiiiiiii",
" +&&&&&&&&&&&&&&&&&&&&&&&,$ iiiiiiiiiiiiiiiiiiiiiiiiiiiiiiiiiiiiiiiiiiiiiiiiiiiiiiiiiiii",
"i&&O$$&&&&&&&&&&&&&&&&&&&&&iiiiiiiiiiiiiiiiiiiiiiiiiiiiiiiiiiiiiiiiiiiiiiiiiiiiiiiiiiiii",
"ii      :>>>>>>>>>>>>>>>&%&iiiiiiiiiiiiiiiiiiiiiiiiiiiiiiiiiiiiiiiiiiiiiiiiiiiiiiiiiiiii"
};
