/* XPM */
static char *result[] = {
/* columns rows colors chars-per-pixel */
"101 111 44 1 ",
"  c black",
". c #676654",
"X c #995D5D",
"o c #B0C77D",
"O c #B1C77D",
"+ c #B0C87D",
"@ c #B1C87D",
"# c #B0C97D",
"$ c #B1C97D",
"% c #B1CA7D",
"& c #B0C87E",
"* c #B1C87E",
"= c #B0C97E",
"- c #B1C97E",
"; c #B0C87F",
": c #B1C87F",
"> c #B0C97F",
", c #B1C97F",
"< c #B2C97E",
"1 c #B2C87F",
"2 c #B2C97F",
"3 c #B0CA7E",
"4 c #B1CA7E",
"5 c #B1CA7F",
"6 c #B2CA7E",
"7 c #B3CA7E",
"8 c #B2CA7F",
"9 c #5C728D",
"0 c #5C738D",
"q c #5D738D",
"w c #5C728E",
"e c #5D728E",
"r c #5C738E",
"t c #5D738E",
"y c #5C738F",
"u c #5D738F",
"i c #5E728E",
"p c #5E738E",
"a c #5D748E",
"s c #5D748F",
"d c #5E748E",
"f c #5E748F",
"g c #E1DFC1",
"h c None",
/* pixels */
"hhhhhhhhhhhhhhhhh+8-22 -+6hhhhhhhhhhhhhhhhhhhhhhhhhhhhhhhhhhhhhhhhhhhhhhhhhhhhhhhhhhhhhhhhhhhhhhhhhhh",
"hhhhhhhhhhhhhhh-8- --  ---= 7hhhhhhhhhhhhhhhhhhhhhhhhhhhhhhhhhhhhhhhhhhhhhhhhhhhhhhhhhhhhhhhhhhhhhhhh",
"hhhhhhhhhhhh1$---$ -- ---   *-hhhhhhhhhhhhhhhhhhhhhhhhhhhhhhhhhhhhhhhhhhhhhhhhhhhhhhhhhhhhhhhhhhhhhhh",
"hhhhhhhhhhh,<+ --- -- -   g   @hhhhhhhhhhhhhhhhhhhhhhhhhhhhhhhhhhhhhhhhhhhhhhhhhhhhhhhhhhhhhhhhhhhhhh",
"hhhhhhhhhh@&-- --  -- - ggggg  <6hhhhhhhhhhhhhhhhhhhhhhhhhhhhhhhhhhhhhhhhhhhhhhhhhhhhhhhhhhhhhhhhhhhh",
"hhhhhhhh&8---  --  --   gggggg --&hhhhhhhhhhhhhhhhhhhhhhhhhhhhhhhhhhhhhhhhhhhhhhhh*+ hhhhhhhhhhhhhhhh",
"hhhhhhh5--$-  --  ---  gggggggg =-:hhhhhhhhhhhhhhhhhhhhhhhhhhhhhhhhhhhhhhhhhhhhhh-- hhhhhhhhhhhhhhhhh",
"hhhhhh*--------   --   ggggggg  ---+hhhhhhhhhhhhhhhhhhhhhhhhhhhhhhhhhhhhhhhhhhhh,4  hhh hhhhhhhhhhhhh",
"hhhhh*=-----     --- - gg..gg  ----66hhhhhhhhhhhhhhhhhhhhhhhhhhhhhhhhhhhhhhhhhh-$  hh  -hhhhhhhhhhhhh",
"hhhh2=-----    ----- -  ....  ----  --hhhhhhhhhhhhhhhhhhhhhhhhhhhhhhhhhhhhhhh---     @-hhhhhhhhhhhhhh",
"hhh-6-----------   ---- .... --   --@-$hhhhhhhhhhhhhhhhhhhhhhhhhhhhhhhhhhhhh>--  ----- hhhhhhhhhhhhhh",
"hhh*----------   -------    -- ---------hhhhhhhhhhhhhhhhhhhhhhhhhhhhhhhhhhhh--< ----$  hhhhhhhhhhhhhh",
"hh *--------   g   -------  ----------**hhhhhhhhhhhhhhhhhhhhhhhhhhhhhhhhhhh#*$  ----  hhhhhhhhhhhhhhh",
"hh---------  ggggg   ------    ------  --hhhhhhhhhhhhhhhhhhhhhhhhhhhhhhhhh$4--       hhhhhhhhhhhhhhhh",
"h,<-------  ggggggg   --------   ---   --3hhhhhhhhhhhhhhhhhhhhhhhhhhhhhhh&*--- ----   hhhhhhhhhhhhhhh",
"h-$------  - gggggggg -------   --      =-4hhhhhhhhhhhhhhhhhhhhhhhhhhhh<*<---   ------6hhhhhhhhhhhhhh",
"h<@--------- ggg...ggg -----  ---       -  hhhhhhhhhhhhhhhhhhhhhhhhhh:-<-$--- h   --<<<hhhhhhhhhhhhhh",
"5------------ gg...ggg ----- ---          6hhhhhhhhhhhhhhhhhhhhhhhhh  -------  hhh     hhhhhhhhhhhhhh",
",------------ g....gg  ----  --         -$-4hhhhhhhhhhhhhhhhhhhhhhh-=---------      hhhhhhhhhhhhhhhhh",
" ------------  .... g - ---- -         ---$@hhhhhhhhhhhhhhhhhhhhhh2=-  --o-------+-  hhhhhhhhhhhhhhhh",
" -------------        - -----          -----hhhhhhhhhhhhhhhhhhhhh,-     ------<--8<hhhhhhhhhhhhhhhhhh",
"2---------------    --- -----    XXX  -  --,hhhhhhhhhhhhhhhhhhhhh4*--            hhhhhhhhhhhhhhhhhhhh",
"----------------------- ----    XXX  -   --5hhhhhhhhhhhhhhhhhhhh---- hhhhhhhhhhhhhhhhhhhhhhhhhhhhhhhh",
"$---------------------  ----    XX  -   ---hhhhhhhhhhhhhhhhhhhh6---  hhhhhhh   hhhhhhhhhhhhhhhhhhhhhh",
" $$----------------------------    -- ---4 hhhhhhhhhhhhhhhhhhh-4@-- hhhhh      hhhhhhhhhhhhhhhhhhhhhh",
"h---------   -------------------  ------  hhhhhhhhhhhhhhhhhhh@-*--        -----5hhhhhhhhhhhhhhhhhhhhh",
"h $---------  ------------------------$  hhhhhhhhhhhhhhhhhh1--       -$-*<-$-4-- -hhhhhhhhhhhhhhhhhhh",
"hh ---------- ----- ------          --  hhhhhhhhhhhhhhhhhh    --------<<-----  $--&-hhhhhhhhhhhhhhhhh",
"hhh 6---------------  -    ---------    hhhhhhhhhhh4-<22*--$--------------    ---$--<-5hhhhhhhh-&   h",
"hhhh *@--------------    ---------------hhhhhhhhh --#----@$-------------    - ---------<2$   -<-  hhh",
"hhhhh -$$-----------   ------------------422222***<$---------------4*@   hh @  ----------- $     hhhh",
"hhhhhh =-------$@--  ---------------------------@4-------------<--+   hhhhh <*    --------  -        ",
"hhhhhhhh 4----#--    -----------------------------------------4-   hhhhhhhhh #---     -----  -----$-8",
"hhhhhhhhh -<2<  hhhhh -$------------------------  ------------  hhhhhhhhhhhhh 6----     ---   ----*<h",
"hhhhhhhhhhhhhhhhhhhhhh 4------                    ---------    hhhhhhhhhhhhhhh  ---  hh  ---        h",
"hhhhhhhhhhhhhhhhhhhhhh -$----- ----------  ------    ---    @hhhhhhhhhhhhhhhhhh  ---  hh ---- hhhhhhh",
"hhhhhhhhhhhhhhhhhhhhhhh @----- ----------- ---------     $--hhhhhhhhhhhhhhhhhhhh $=-- hh  @$-  hhhhhh",
"hhhhhhhhhhhhhhhhhhhhhhh*------ -----------  ------------<-8hhhhhhhhhhhhhhhhhhhhhh *<-6 hh  --$   hhhh",
"hhhhhhhhhhhhhhhhhhhhhhh-------------------- -------<--$--&hhhhhhhhhhhhhhhhhhhhhhhh  =, hhhh   2hhhhhh",
"hhhhhhhhhhhhhhhhhhhhhhh+-------------         ------==$-= hhhhhhhhhhhhhhhhhhhhhhhhhhhhhhhhhhhhhhhhhhh",
"hhhhhhhhhhhhhhhhhhhhhhh -$------- -- -----  h          hhhhhhhhhhhhhhhhhhhhhhhhhhhhhhhhhhhhhhhhhhhhhh",
"hhhhhhhhhhhhhhhhhhhhhhhh-----------  -----@ hhhhhhhhhhhhhhhhhhhhhhhhhhhhhhhhhhhhhhhhhhhhhhhhhhhhhhhhh",
"hhhhhhhhhhhhhhhhhhhhhhhh *$---------------- hhhhhhhhhhhhhhhhhhhhhhhhhhhhhhhhhhhhhhhhhhhhhhhhhhhhhhhhh",
"hhhhhhhhhhhhhhhhhhhhhhhhh-*---------------- hhhhhhhhhhhhhhhhhhhhhhhhhhhhhhhhhhhhhhhhhhhhhhhhhhhhhhhhh",
"hhhhhhhhhhhhhhhhhhhhhhhhh <------------  --*hhhhhhhhhhhhhhhhhhhhhhhhhhhhhhhhhhhhhhhhhhhhhhhhhhhhhhhhh",
"hhhhhhhhhhhhhhhhhhhhhhhhhh-------  ----  --<hhhhhhhhhhhhhhhhhhhhhhhhhhhhhhhhhhhhhhhhhhhhhhhhhhhhhhhhh",
"hhhhhhhhhhhhhhhhhhhhhhhhhh-*----  ---- -- -2hhhhhhhhhhhhhhhhhhhhhhhhhhhhhhhhhhhhhhhhhhhhhhhhhhhhhhhhh",
"hhhhhhhhhhhhhhhhhhhhhhhhhhh<--------- --- -*hhhhhhhhhhhhhhhhhhhhhhhhhhhhhhhhhhhhhhhhhhhhhhhhhhhhhhhhh",
"hhhhhhhhhhhhhhhhhhhhhhhhhhh --------  ---  -hhhhhhhhhhhhhhhhhhhhhhhhhhhhhhhhhhhhhhhhhhhhhhhhhhhhhhhhh",
"hhhhhhhhhhhhhhhhhhhhhhhhhhhh --------------=hhhhhhhhhhhhhhhhhhhhhhhhhhhhhhhhhhhhhhhhhhhhhhhhhhhhhhhhh",
"hhhhhhhhhhhhhhhhhhhhhhhhhhhhh-------------*-hhhhhhhhhhhhhhhhhhhhhhhhhhhhhhhhhhhhhhhhhhhhhhhhhhhhhhhhh",
"hhhhhhhhhhhhhhhhhhhhhhhhhhhhh <-----------  hhhhhhhhhhhhhhhhhhhhhhhhhhhhhhhhhhhhhhhhhhhhhhhhhhhhhhhhh",
"hhhhhhhhhhhhhhhhhhhhhhhhhhhhhh----------$- hhhhhhhhhhhhhhhhhhhhhhhhhhhhhhhhhhhhhhhhhhhhhhhhhhhhhhhhhh",
"hhhhhhhhhhhhhhhhhhhhhhhhhhhhhh4---------- hhhhhhhhhhhhhhhhhhhhhhhhhhhhhhhhhhhhhhhhhhhhhhhhhhhhhhhhhhh",
"hhhhhhhhhhhhhhhhhhhhhhhhhhhhhh2--------$* hhhhhhhhhhhhhhhhhhhhhhhhhhhhhhhhhhhhhhhhhhhhhhhhhhhhhhhhhhh",
"hhhhhhhhhhhhhhhhhhhhhhhhhhhhhh4----------hhhhhhhhhhhhhhhhhhhhhhhhhhhhhhhhhhhhhhhhhhhhhhhhhhhhhhhhhhhh",
"hhhhhhhhhhhhhhhhhhhhhhhhhhhhhh ---------<hhhhhhhhhhhhhhhhhhhhhhhhhhhhhhhhhhhhhhhhhhhhhhhhhhhhhhhhhhhh",
"hhhhhhhhhhhhhhhhhhhhhhhhhhhhh0t  ------   hhhhhhhhhhhhhhhhhhhhhhhhhhhhhhhhhhhhhhhhhhhhhhhhhhhhhhhhhhh",
"hhhhhhhhhhhhhhhhhhhhhhhhhhhhetttt       tauhhhhhhhhhhhhhhhhhhhhhhhhhhhhhhhhhhhhhhhhhhhhhhhhhhhhhhhhhh",
"hhhhhhhhhhhhhhhhhhhhhhhhhhhwttttttttttt ttu9hhhhhhhhhhhhhhhhhhhhhhhhhhhhhhhhhhhhhhhhhhhhhhhhhhhhhhhhh",
"hhhhhhhhhhhhhhhhhhhhhhhhhhhettttttttttt ttf0hhhhhhhhhhhhhhhhhhhhhhhhhhhhhhhhhhhhhhhhhhhhhhhhhhhhhhhhh",
"hhhhhhhhhhhhhhhhhhhhhhhhhhhuettttttttttt teqahhhhhhhhhhhhhhhhhhhhhhhhhhhhhhhhhhhhhhhhhhhhhhhhhhhhhhhh",
"hhhhhhhhhhhhhhhhhhhhhhhhhh stttttttttttt tttt0hhhhhhhhhhhhhhhhhhhhhhhhhhhhhhhhhhhhhhhhhhhhhhhhhhhhhhh",
"hhhhhhhhhhhhhhhhhhhhhhhhhhetttttttttttttt tttttqhhhhhhhhhhhhhhhhhhhhhhhhhhhhhhhhhhhhhhhhhhhhhhhhhhhhh",
"hhhhhhhhhhhhhhhhhhhhhhhhhhurtttt  ttttttt tttttqtqhhhhhhhhhhhhhhhhhhhhhhhhhhhhhhhhhhhhhhhhhhhhhhhhhhh",
"hhhhhhhhhhhhhhhhhhhhhhhhhhtttttt ttttttttt ttttttqtiydhhhhhhhhhhhhhhhhhhhhhhhhhhhhhhhhhhhhhhhhhhhhhhh",
"hhhhhhhhhhhhhhhhhhhhhhhhhsttttt tttttttttt   ttttttttqt0rhhhhhhhhhhhhhhhhhhhhhhhhhhhhhhhhhhhhhhhhhhhh",
"hhhhhhhhhhhhhhhhhhhhhhhhhatt   ttttttttttttt  ttttttttttai hhhhhhhhhhhhhhhhhhhhhhhhhhhhhhhhhhhhhhhhhh",
"hhhhhhhhhhhhhhhhhhhhhhhhhutttttttttttttttttt tttttttttttet hhhhhhhhhhhhhhhhhhhhhhhhhhhhhhhhhhhhhhhhhh",
"hhhhhhhhhhhhhhhhhhhhhhhhh0ttttttttttttttttt  ttttttttttttt hhhhhhhhhhhhhhhhhhhhhhhhhhhhhhhhhhhhhhhhhh",
"hhhhhhhhhhhhhhhhhhhhhhhhh ptttttttttttttt    ttttttttttt   hhhhhhhhhhhhhhhhhhhhhhhhhhhhhhhhhhhhhhhhhh",
"hhhhhhhhhhhhhhhhhhhhhhhhhhttttttttttttt    tttttttttttt  $-5hhhhhhhhhhhhhhhhhhhhhhhhhhhhhhhhhhhhhhhhh",
"hhhhhhhhhhhhhhhhhhhhhhhhhhitttttttttttt   tttttttttttt  -$+46hhhhhhhhhhhhhhhhhhhhhhhhhhhhhhhhhhhhhhhh",
"hhhhhhhhhhhhhhhhhhhhhhhhhhatttttttttttt h ttttttttttt  --<$$-;hhhhhhhhhhhhhhhhhhhhhhhhhhhhhhhhhhhhhhh",
"hhhhhhhhhhhhhhhhhhhhhhhhhh pttttttttttt hh ttttttttt     -$*6 hhhhhhhhhhhhhhhhhhhhhhhhhhhhhhhhhhhhhhh",
"hhhhhhhhhhhhhhhhhhhhhhhhhhhtttttttttttt hh  tttttttt hhh  -@*hhhhhhhhhhhhhhhhhhhhhhhhhhhhhhhhhhhhhhhh",
"hhhhhhhhhhhhhhhhhhhhhhhhhhhurtttttttttt hhh  ttttttt hhhh --*hhhhhhhhhhhhhhhhhhhhhhhhhhhhhhhhhhhhhhhh",
"hhhhhhhhhhhhhhhhhhhhhhhhhhh ttttttttttu hhhh ttt     hhh  --*hhhhhhhhhhhhhhhhhhhhhhhhhhhhhhhhhhhhhhhh",
"hhhhhhhhhhhhhhhhhhhhhhhhhhh stttttttttt hhhhh ett hhhhhh --@-hhhhhhhhhhhhhhhhhhhhhhhhhhhhhhhhhhhhhhhh",
"hhhhhhhhhhhhhhhhhhhhhhhhhhhhuetttttttte hhhhhh sp hhhhhh ----hhhhhhhhhhhhhhhhhhhhhhhhhhhhhhhhhhhhhhhh",
"hhhhhhhhhhhhhhhhhhhhhhhhhhhhwttttttttteuhhhhhhh   hhhhh  ----<hhhhhhhhhhhhhhhhhhhhhhhhhhhhhhhhhhhhhhh",
"hhhhhhhhhhhhhhhhhhhhhhhhhhhh ttttttttttthhhhhhhhhhhhhhh ----*-hhhhhhhhhhhhhhhhhhhhhhhhhhhhhhhhhhhhhhh",
"hhhhhhhhhhhhhhhhhhhhhhhhhhhh tttttttttut hhhhhhhhhhhhhh -----2hhhhhhhhhhhhhhhhhhhhhhhhhhhhhhhhhhhhhhh",
"hhhhhhhhhhhhhhhhhhhhhhhhhhhhhtttttttttttahhhhhhhhhhhhhh  ----2hhhhhhhhhhhhhhh6%hhhhhhhhhhhhhhhhhhhhhh",
"hhhhhhhhhhhhhhhhhhhhhhhhhhhhhittttttttttthhhhhhhhhhhhhhh 4---2hhhhhhhhhhhhh-<-,hhhhhhhhhhhhhhhhhhhhhh",
"hhhhhhhhhhhhhhhhhhhhhhhhhhhhhutttttttttes hhhhhhhhhhhhhh ----4hhhhhhhhh5,4<<-6hhhhhhhhhhhhhhhhhhhhhhh",
"hhhhhhhhhhhhhhhhhhhhhhhhhhhhhwtttttttttteuhhhhhhhhhhhhhh $$--<hhhhhh,#----@$-hhhhhhhhhhhhhhhhhhhhhhhh",
"hhhhhhhhhhhhhhhhhhhhhhhhhhhhhatttttttttttuhhhhhhhhhhhhhhh ----=hhh---*@----4<hhhhhhhhhhhhhhhhhhhhhhhh",
"hhhhhhhhhhhhhhhhhhhhhhhhhhhh qwttttttttttuhhhhhhhhhhhhhhh  --4-<-<--------=*hhhhhhhhhhhhhhhhhhhhhhhhh",
"hhhhhhhhhhhhhhhhhhhhhhhhhhhhqttttttttttttyhhhhhhhhhhhhhhhh  -----@4--------hhhhhhhhhhhhhhhhhhhhhhhhhh",
"hhhhhhhhhhhhhhhhhhhhhhhhhhhhwtttttttttttq hhhhhhhhhhhhhhhhh ----------4-4-hhhhhhhhhhhhhhhhhhhhhhhhhhh",
"hhhhhhhhhhhhhhhhhhhhhhhhhhhhttttttttttttthhhhhhhhhhhhhhhhhhh @ -------=@hhhhhhhhhhhhhhhhhhhhhhhhhhhhh",
"hhhhhhhhhhhhhhhhhhhhhhhhhhhuqttttttttttquhhhhhhhhhhhhhhhhhhh  -    --=-hhhhhhhhhhhhhhhhhhhhhhhhhhhhhh",
"hhhhhhhhhhhhhhhhhhhhhhhhhhhttttttttttttthhhhhhhhhhhhhhhhhhhh  $---$-62hhhhhhhhhhhhhhhhhhhhhhhhhhhhhhh",
"hhhhhhhhhhhhhhhhhhhhhhhhhhdqttttttttttq hhhhhhhhhhhhhhhhhhhhh**-$-*- hhhhhhhhhhhhhhhhhhhhhhhhhhhhhhhh",
"hhhhhhhhhhhhhhhhhhhhhhhhhhetttttttttttthhhhhhhhhhhhhhhhhhhhhh $--- hhhhhhhhhhhhhhhhhhhhhhhhhhhhhhhhhh",
"hhhhhhhhhhhhhhhhhhhhhhhhhhtttttttttttq hhhhhhhhhhhhhhhhhhhhhhh=, hhhhhhhhhhhhhhhhhhhhhhhhhhhhhhhhhhhh",
"hhhhhhhhhhhhhhhhhhhhhhhhhqqttttttttttthhhhhhhhhhhhhhhhhhhhhhhhhhhhhhhhhhhhhhhhhhhhhhhhhhhhhhhhhhhhhhh",
"hhhhhhhhhhhhhhhhhhhhhhhhhutttttttttttihhhhhhhhhhhhhhhhhhhhhhhhhhhhhhhhhhhhhhhhhhhhhhhhhhhhhhhhhhhhhhh",
"hhhhhhhhhhhhhhhhhhhhhhhh tettttttttttuhhhhhhhhhhhhhhhhhhhhhhhhhhhhhhhhhhhhhhhhhhhhhhhhhhhhhhhhhhhhhhh",
"hhhhhhhhhhhhhhhhhhhhhhhhpttttttttttttuhhhhhhhhhhhhhhhhhhhhhhhhhhhhhhhhhhhhhhhhhhhhhhhhhhhhhhhhhhhhhhh",
"hhhhhhhhhhhhhhhhhhhhhhhhutttt  ttttttihhhhhhhhhhhhhhhhhhhhhhhhhhhhhhhhhhhhhhhhhhhhhhhhhhhhhhhhhhhhhhh",
"hhhhhhhhhhhhhhhhhhhhhhhhutttt  ttttttthhhhhhhhhhhhhhhhhhhhhhhhhhhhhhhhhhhhhhhhhhhhhhhhhhhhhhhhhhhhhhh",
"hhhhhhhhhhhhhhhhhhhhhhhhytttt   tttttp hhhhhhhhhhhhhhhhhhhhhhhhhhhhhhhhhhhhhhhhhhhhhhhhhhhhhhhhhhhhhh",
"hhhhhhhhhhhhhhhhhhhhhhhhdqtt     t     hhhhhhhhhhhhhhhhhhhhhhhhhhhhhhhhhhhhhhhhhhhhhhhhhhhhhhhhhhhhhh",
"hhhhhhhhhhhhhhhhhhhhhhhhh    - -   ------hhhhhhhhhhhhhhhhhhhhhhhhhhhhhhhhhhhhhhhhhhhhhhhhhhhhhhhhhhhh",
"hhhhhhhhhhhhhhhhhhhhhhhhhhh -- ---------*<=@hhhhhhhhhhhhhhhhhhhhhhhhhhhhhhhhhhhhhhhhhhhhhhhhhhhhhhhhh",
"hhhhhhhhhhhhhhhhhhhhhhhhhhh --- -----------@<-5hhhhhhhhhhhhhhhhhhhhhhhhhhhhhhhhhhhhhhhhhhhhhhhhhhhhhh",
"hhhhhhhhhhhhhhhhhhhhhhhhhhh --- ----------4-4-4<,Ohhhhhhhhhhhhhhhhhhhhhhhhhhhhhhhhhhhhhhhhhhhhhhhhhhh",
"hhhhhhhhhhhhhhhhhhhhhhhhhhhh4--------------6*<-4$Ohhhhhhhhhhhhhhhhhhhhhhhhhhhhhhhhhhhhhhhhhhhhhhhhhhh",
"hhhhhhhhhhhhhhhhhhhhhhhhhhhh--<22222222<-  hhhhhhhhhhhhhhhhhhhhhhhhhhhhhhhhhhhhhhhhhhhhhhhhhhhhhhhhhh"
};
