/* XPM */
static char *result[] = {
/* columns rows colors chars-per-pixel */
"46 117 39 1 ",
"  c black",
". c #4A5139",
"X c #4A513A",
"o c gray26",
"O c #434343",
"+ c #444444",
"@ c #454444",
"# c #8B5F5F",
"$ c #8B994D",
"% c #8B9A4D",
"& c #8B984E",
"* c #8B994E",
"= c #8B9A4E",
"- c #8C984D",
"; c #8C994D",
": c #8C9A4D",
"> c #8C984E",
", c #8C994E",
"< c #8D994E",
"1 c #8C994F",
"2 c #8C9A4E",
"3 c #8D9A4E",
"4 c #8D9A4F",
"5 c #E7E2C8",
"6 c #E7E2C9",
"7 c #E8E1C8",
"8 c #E8E1C9",
"9 c #E8E2C8",
"0 c #E8E2C9",
"q c #E9E2C9",
"w c #E8E3C9",
"e c #E9E3C9",
"r c #E8E2CA",
"t c #E9E3CA",
"y c #E8E2DE",
"u c #ECDBE8",
"i c #EDDBE8",
"p c #EEDBE9",
"a c None",
/* pixels */
"aaaaaaaaaaaaaaa>,,,,,,,,,,*aaaaaaaaaaaaaaaaaaa",
"aaaaaaaaaaaa3,,,1,, ,,,,,1*,&<aaaaaaaaaaaaaaaa",
"aaaaaaaaaa2,,>  ,,,  ,,,,  ,1,,>aaaaaaaaaaaaaa",
"aaaaaaaa<,,,3,,,,,,,,,,,,,, ,,,*=aaaaaaaaaaaaa",
"aaaaaaa,*,,    ,  ,,,, ,,,,,,,,,;=aaaaaaaaaaaa",
"aaaaa<,,,,,,,,,,,  ,,, , ,,,,,  ,*>aaaaaaaaaaa",
"aaaa&*, ,,,,,,,,,,,,,,, ,,,,   ,,,,aaaaaaaaaaa",
"aaa&;,,, ,,,, ,,,,,    ,,,,,  ,,,,  aaaaaaaaaa",
"aa<*,,,,,,,,,  ,,,,,,,,,,,, ,,,,,  paaaaaaaaaa",
"aa,,,,,,,,,,,,,,,,,,,,,,,, ,,,,,, iiuaaaaaaaaa",
"a2,    ,,,,,,,,,,,  ,,,,,  ,,,,, iiii aaaaaaaa",
"a>,,,,,,,,,   ,,,,,, ,,,, ,,,,, iiii..aaaaaaaa",
"4,,,,,,,,,,,,,,,,,,,,,,, ,,,,,  iiii.Xaaaaaaaa",
"*,,,,,,,, ,,,,,, ,,,,,,  ,,,,  iiiii.. aaaaaaa",
",,    ,,,  ,,,,,, ,,,,, ,,,,  iiiiiii  aaaaaaa",
",,,,,  ,,,  ,,,,,,,,,,  ,,,   iiiiiii ,,aaaaaa",
",,,,,,,,,,,,,,,,,,,,,  ,,,   ,  iii  ,,;=aaaaa",
",,,,,,,,,,,,,   ,,,,, ,,,, i ,,,    ,,,,; aaaa",
",,,,,,,,,,,,,,, ,,,,  ,,, ii  ,,,,,,,,,,   aaa",
",,  ,,,  ,,,,,,,,,,, ,,,  iii ,,    ,,,  06aaa",
",,,  ,,,  ,,,,,,,,,,,,,  iii.. ,  ,,,,  0wqaaa",
",,,,,,,,,,,,  ,,,,,,,,, iiii.. ,  ,,,   0w9aaa",
",,,,,,,,,,,,, ,,,,,,,,  iiii.. ,,,,,  0 09 aaa",
"* ,,,,,,,,,,,,,,,,,,,  iiiiii  ,,,   000   aaa",
"    ,,  ,,,,,,,,,,,,  iiiiii  ,,,  0  00  a aa",
"a,1,,,,  ,,   ,,,,,    ii    ,,,  000   aa aaa",
"a ,,,,,,,,,,,,,,,,, ,,,   ,,,,,    00  aaa waa",
"aa*<,,,,,,,,,,,,,,,,,,,,,,,,,,  00    aaa   aa",
"aa -,,  ,,,,,,,,,,,,,,,,,,,,   0000  aaa  0  5",
"aaa *,,, ,,   ,,,,,,,,,        000  aa   00e6r",
"aaaaa <,2,,1,  ,,,,,    ,  ,,,           005ta",
"aaaaaaa   *,,,,,     ,,,,,       OO OOO 0006aa",
"aaaaaaaaaaa       ,,,,,,,,    OOOOO OOO 00w aa",
"aaaaaaaaaaaaaaaaaa   ,,,,     OOOOO OOO    aaa",
"aaaaaaaaaaaaaaaaaa   ,,,  ###  OOO  OOOOO  aaa",
"aaaaaaaaaaaaaaaaaaOOO  ,, ####  OO OOOOOOO aaa",
"aaaaaaaaaaaaaaaaaOOOOO    #### @   OOOOOOO aaa",
"aaaaaaaaaaaaaaaaOOOOOOO   #### OO  OOOOOOOOaaa",
"aaaaaaaaaaaaaaa  OOOOOOO    ## OOO  OOOO   Oaa",
"aaaaaaaaaaaaa>,,    OO   OO  # OOOO      y Oaa",
"aaaaaaaaa7   *,  OOO   O OOO   OOOO yyyyyy Oaa",
"aaaaaaaa068   ,   OOOOOO OOOO   OOO yyy    aaa",
"aaaaaaaar6000  ,,     OO OOOOO  OOO     O +aaa",
"aaaaaaaa w00  ,,,,,,  OO OOOOOO  OO OOOOO Oaaa",
"aaaaaaaa 800  ,3,   OOOO     OOO  O OOOOO Oaaa",
"aaaaaaaaq9     *,   OOOOOOOOO       OOOOO Oaaa",
"aaaaaaaaa8 aaa %**,  OOOOOOOOOOO          Oaaa",
"aaaaaaaaaaaaaaaaa    OOOOOOOOOOOOO  OOOO+OOaaa",
"aaaaaaaaaaaaaaaaaaO+OOOOOOOOOOOOOO  OOOOOOaaaa",
"aaaaaaaaaaaaaaaaaaaOOOOOOOOOOOOOOOO OOOOOOaaaa",
"aaaaaaaaaaaaaaaaaaa OOOOOOOOOOOOOOO OOOOO aaaa",
"aaaaaaaaaaaaaaaaaaaa OOOOOOOOOOOOOO OOOOOaaaaa",
"aaaaaaaaaaaaaaaaaaaa OOOOOOOOOOOOOO OOOO aaaaa",
"aaaaaaaaaaaaaaaaaaaa OOOOOOOOOOOOOO OOOO aaaaa",
"aaaaaaaaaaaaaaaaaaaa OOOOOOOOO OOOO OOOOaaaaaa",
"aaaaaaaaaaaaaaaaaaaa OOOOO      OOO OOOoaaaaaa",
"aaaaaaaaaaaaaaaaaaaa      OOOOOOOOO OOOOaaaaaa",
"aaaaaaaaaaaaaaaaaaaa OOOOOOOOOOOOO  OOOOaaaaaa",
"aaaaaaaaaaaaaaaaaaaaOO    OOOOOOOO OOOOOaaaaaa",
"aaaaaaaaaaaaaaaaaaaoOOOOOO  OOOOOO OOOOOaaaaaa",
"aaaaaaaaaaaaaaaaaaoOOOOOOOOOOOOOOO OOOOOaaaaaa",
"aaaaaaaaaaaaaaaaaaOOOOOOOOOOOOOOO OOOOo+aaaaaa",
"aaaaaaaaaaaaaaaaaOOOOOOOOOOOOOOOO OOOOOaaaaaaa",
"aaaaaaaaaaaaaaaaOOOOOOOOOOOOOOOO   OOO+aaaaaaa",
"aaaaaaaaaaaaaaaaOOOOOOOOOOOOOOOO O OOOOaaaaaaa",
"aaaaaaaaaaaaaaaO+OOOOOOOOOOOOOO  O OOOOaaaaaaa",
"aaaaaaaaaaaaaaaOOOOOOOOOOOOOOOO OO  OOOaaaaaaa",
"aaaaaaaaaaaaaaO+OOOOOOOOOOOOOO  OOO OOOaaaaaaa",
"aaaaaaaaaaaaaaOOOOOOOOOOOOOOOO OOOO   Oaaaaaaa",
"aaaaaaaaaaaaaaOOOOOOOOOOOOOOO OOOOOOO  aaaaaaa",
"aaaaaaaaaaaaaaOOOOOOOOOOOOOO  OOOOOOOOOaaaaaaa",
"aaaaaaaaaaaaaa  OOOOOOOO     OOOOOOOOOOoaaaaaa",
"aaaaaaaaaaaaaa           OOOOOOOOOOOOO+OOaaaaa",
"aaaaaaaaaaaaaa OOOOOOOOOOOOOOOOOOOOOOOOOO+aaaa",
"aaaaaaaaaaaaaaaOOOOOOOOOOOOOOOOOO  OOOOOOOaaaa",
"aaaaaaaaaaaaaaa oOOOOOOOOOOOOO    OOOOOOOOoaaa",
"aaaaaaaaaaaaaaaaOOOOOOOOOOOO   OOOOOO    O+aaa",
"aaaaaaaaaaaaaaaaOOOOOOOOOOOOO OOOOOOO     Oaaa",
"aaaaaaaaaaaaaaaaOOOOOOOOOOOOO OOOOOOOO 0   aaa",
"aaaaaaaaaaaaaaaa O+OOOOOOOOOO   OOO    00  aaa",
"aaaaaaaaaaaaaaaaaOOOOOOOOOOOOO   OO    00w aaa",
"aaaaaaaaaaaaaaaaa +OOOOOOOOOOO a  Oaaa 00w6aaa",
"aaaaaaaaaaaaaaaaaaOOOOOOOOOOOO aa aaaa  0wqaaa",
"aaaaaaaaaaaaaaaaaa OOOOOOOOOOO aaaaaaaa 0q6aaa",
"aaaaaaaaaaaaaaaaaa OOOOOOOOOOO aaaaaaaa  0 aaa",
"aaaaaaaaaaaaaaaaaa OOOOOOOOOOO aaaaaaaaa 5aaaa",
"aaaaaaaaaaaaaaaaaa OOOOOOOOOOO aaaaaaaaaaaaaaa",
"aaaaaaaaaaaaaaaaaa OOOOOOOOOOO aaaaaaaaaaaaaaa",
"aaaaaaaaaaaaaaaaaaOOOOOOOOOOOO aaaaaaaaaaaaaaa",
"aaaaaaaaaaaaaaaaaaOOOOOOOOOOOO aaaaaaaaaaaaaaa",
"aaaaaaaaaaaaaaaaaO+OOOOOOOOOOO aaaaaaaaaaaaaaa",
"aaaaaaaaaaaaaaaaa+OOOOOOOOOOOO aaaaaaaaaaaaaaa",
"aaaaaaaaaaaaaaaaoOOOOOOOOOOOOO aaaaaaaaaaaaaaa",
"aaaaaaaaaaaaaaaaoOOOOOOOOOOOOO aaaaaaaaaaaaaaa",
"aaaaaaaaaaaaaaaaoOOOOOOOOOOOOO aaaaaaaaaaaaaaa",
"aaaaaaaaaaaaaaaaOOOOOOOOOOOOO aaaaaaaaaaaaaaaa",
"aaaaaaaaaaaaaaaO+OOOOOOOOOOOO aaaaaaaaaaaaaaaa",
"aaaaaaaaaaaaaaaOOOOOOOOO  O++ aaaaaaaaaaaaaaaa",
"aaaaaaaaaaaaaaaOOOOOOOOO  OO aaaaaaaaaaaaaaaaa",
"aaaaaaaaaaaaaaaOOOOOOOOO O O aaaaaaaaaaaaaaaaa",
"aaaaaaaaaaaaaaaoOOOOOOOO O  aaaaaaaaaaaaaaaaaa",
"aaaaaaaaaaaaaaaoOOOOOOOO    aaaaaaaaaaaaaaaaaa",
"aaaaaaaaaaaaaa OOOOOOOOOO a aaaaaaaaaaaaaaaaaa",
"aaaaaaaaaaaaaa OOOOOOOOOO aaaaaaaaaaaaaaaaaaaa",
"aaaaaaaaaaaaaa OOOOOOOOOO aaaaaaaaaaaaaaaaaaaa",
"aaaaaaaaaaaaaaaOOO  OOOOO aaaaaaaaaaaaaaaaaaaa",
"aaaaaaaaaaaaaaaOOO  OOOOO aaaaaaaaaaaaaaaaaaaa",
"aaaaaaaaaaaaaaaoOO  OOOOO aaaaaaaaaaaaaaaaaaaa",
"aaaaaaaaaaaaaaaOO ,, OOOO  aaaaaaaaaaaaaaaaaaa",
"aaaaaaaaaaaaaaaO  ,,  O    aaaaaaaaaaaaaaaaaaa",
"aaaaaaaaaaaaaaa   ,,,  ,,,,, aaaaaaaaaaaaaaaaa",
"aaaaaaaaaaaaaaa  ,,,,,,,,,,,1$aaaaaaaaaaaaaaaa",
"aaaaaaaaaaaaaaa    ,,,,,,,,,,,,2aaaaaaaaaaaaaa",
"aaaaaaaaaaaaaaa ,, ,,,,,,,,,,,,,,3,:3aaaaaaaaa",
"aaaaaaaaaaaaaaaa,,,,,,,,,,,,,,,,,,,,,&aaaaaaaa",
"aaaaaaaaaaaaaaaa**,,,,,,,,,,,,,,,,,,*,aaaaaaaa",
"aaaaaaaaaaaaaaaa                      aaaaaaaa"
};
