/* XPM */
static char *result[] = {
/* columns rows colors chars-per-pixel */
"54 109 37 1 ",
"  c black",
". c #4A5139",
"X c #4B5139",
"o c gray26",
"O c #434343",
"+ c #444444",
"@ c #8B5F5F",
"# c #8B994D",
"$ c #8B984E",
"% c #8B994E",
"& c #8B9A4E",
"* c #8C984D",
"= c #8C994D",
"- c #8C9A4D",
"; c #8C984E",
": c #8D984E",
"> c #8C994E",
", c #8D994E",
"< c #8C994F",
"1 c #8C9A4E",
"2 c #8D9A4E",
"3 c #8C9A4F",
"4 c #E7E2C8",
"5 c #E7E2C9",
"6 c #E8E1C8",
"7 c #E8E2C8",
"8 c #E8E2C9",
"9 c #E9E2C9",
"0 c #E8E3C9",
"q c #E9E3C9",
"w c #E8E2CA",
"e c #E9E3CA",
"r c #E8E1DE",
"t c #E8E2DE",
"y c #E8E3DE",
"u c #EDDBE8",
"i c None",
/* pixels */
"iiiiiiiiiiiiiiiiiiiiiiii,>>> %iiiiiiiiiiiiiiiiiiiiiiii",
"iiiiiiiiiiiiiiiiiiiiii1>%<>> %>2>>;>iiiiiiiiiiiiiiiiii",
"iiiiiiiiiiiiiiiiiiii1>>> >> >>>>>>>% 2><iiiiiiiiiiiiii",
"iiiiiiiiiiiiiiiiii%- >> >>> >>>>>>>> ><<>1iiiiiiiiiiii",
"iiiiiiiiiiiiiiiii=>  >> >>>>>>> >>> >>>>>>  iiiiiiiiii",
"iiiiiiiiiiiiiiiii%< >> >>>>>>>  >>> >>>>>> $2iiiiiiiii",
"iiiiiiiiiiiiiiii>>>>>>>>>>>>>> >>>>>>>>>>> >>% iiiiiii",
"iiiiiiiiiiiiiii;%>>>>>>>>  >>>>>>>>>>>> >>>>>> :iiiiii",
"iiiiiiiiiiiiiii>> >>>>>>> >>>>>>>>>>>>> >>>>>  ><iiiii",
"iiiiiiiiiiiiii1>  >>>>>>  >>>>>>>>>>>> >>>> > >>>%iiii",
"iiiiiiiiiiiiii>>>>>  >>> >>>> >>>  >>  >>>  >>>>>>iiii",
"iiiiiiiiiiiii,>>>>> >>>>>>>>  >>> >>> >>>> >>>> >><iii",
"iiiiiiiiiiiii><>>>> >>>>>>>> >>> >>>>>>>>>>>>> >>>> ii",
"iiiiiiiiiiiii2> >>  >>>>>>> >>>> >>>>>>>>>>>>  >>> >ii",
"iiiiiiiiiiiii%> >>>>>> >>> >>>>>>>>>>>>> >>>>>>>>  >ii",
"iiiiiiiiiiii%1 >>>>>>  >>>>>>>>>>>>>>>>>  >>>>>>> >>2i",
"iiiiiiiiiiii>% >>>>>> >>>>>>>>>>>>>>>>>>>    >>>>>>>23",
"iiiiiiiiiiii %>>>>>>  >>>>>>>>>>     >>>>>>>   >>>>>  ",
"iiiiiiiiiiiii>>>>>>> >>>>>>>>>>> uuu  >>>>>>>>   >>  >",
"iiiiiiiiiiiii>>  >>>>>>>>>>>>>>  uuuu   >>>>>>>>  >>>>",
"iiiiiiiiiiiii % >>>>>>>>>>>>>>> uuuuuu   >>>>>>>>  >>,",
"iiiiiiiiiiiii , >>>>>>>>>>>>>>> uuuuu..     >>>>>>  <2",
"iiiiiiiiiiiiii*;>>>>>>>>>>>>>>>  uuuu..       >>>>> >i",
"iiiiiiiiiiiiii %>>>>>>>>>>>>>>>>  uuu..  > uuu  >>><:i",
"iiiiiiiiiiiiiii  >>>>>>>>>>>>>>>>       >  uuuu  >>>;i",
"iiiiiiiiiiiiiiii  >>>>>>>>>>>>>>>>>>  >>> uuuuuu   >ii",
"iiiiiiiiiiiiiiiii   >>>>>>>>>>>>>>>>>>>>> uuuuu..   ii",
"iiiiiiiiiiiiiiiii >>   >>>>>>>>>>>>>>> >> uuuuu... iii",
"iqweiiiiiiiiiiiii %>>    >>>>>>>>>>>   >>  uuuu..Xiiii",
"40850 %iiiiiiiiii,;>> 88    >>>>>>>    >>>    u   iiii",
"58887 %>2>  OO   >>>  88888  >>>>>> >  >>>>>>   *iiiii",
"i7    >>>>  OO  <<>  88888    >>>>>>>> >>>>>>>>>iiiiii",
"ii %>>       O   >>    888 88   >>>>>> >>>>>>>% iiiiii",
"iii =<>  OOO OOO     O    88888    >>>>>>>>>>=$iiiiiii",
"iiii=>2> OOO  OOO @@ O O  888888 8   >>>>>>>=&iiiiiiii",
"iiiii    OOOO OOO @@@  OO   888 8888  >>>>>=&iiiiiiiii",
"iiiii OOOOOOO  OO @@@@ OO O     88888   >>>&iiiiiiiiii",
"iiiii OOOOOOOO O  @@@  O  OOOO  8888  8  =;iiiiiiiiiii",
"iiiii OOOOOOOO    @@     OOOOOO   8  8q4  iiiiiiiiiiii",
"iiiii+OOOOOOO  OO @    OOOOOOO      848qiiiiiiiiiiiiii",
"iiiiiOOOOOOO  OOO     OOOOOOO  8888  6 iiiiiiiiiiiiiii",
"iiiiO+OOOOOO OOO  OOO     OOOO 8094  iiiiiiiiiiiiiiiii",
"iiiiOOOOOOOO OOO  OOOO ty       99 iiiiiiiiiiiiiiiiiii",
"iiii+OOOOOOO OOO OOOOO   riiiiiiiiiiiiiiiiiiiiiiiiiiii",
"iii O+OOOOOO OOO OOOO  oiiiiiiiiiiiiiiiiiiiiiiiiiiiiii",
"iii OOOOOOOO  O  OOO  Oiiiiiiiiiiiiiiiiiiiiiiiiiiiiiii",
"iiiOOOOOOOOOO   OOOO  +iiiiiiiiiiiiiiiiiiiiiiiiiiiiiii",
"iiiOOOOOOOOOO  OOOO   iiiiiiiiiiiiiiiiiiiiiiiiiiiiiiii",
"iiiOOOOOOOOO   OO   Oiiiiiiiiiiiiiiiiiiiiiiiiiiiiiiiii",
"iiiOOOOOOOOO  OO  OO iiiiiiiiiiiiiiiiiiiiiiiiiiiiiiiii",
"iiiOOOOOOOOO  O  OOOiiiiiiiiiiiiiiiiiiiiiiiiiiiiiiiiii",
"iiiOOOOOOOO  O OO   iiiiiiiiiiiiiiiiiiiiiiiiiiiiiiiiii",
"iiiOOOOOOOOO   OO OOiiiiiiiiiiiiiiiiiiiiiiiiiiiiiiiiii",
"iiiOOOOOOOO  OOOO    iiiiiiiiiiiiiiiiiiiiiiiiiiiiiiiii",
"iiiOOOOOOOOO  O    OOiiiiiiiiiiiiiiiiiiiiiiiiiiiiiiiii",
"iiiOOOOOOOOOO OOOOOOO+iiiiiiiiiiiiiiiiiiiiiiiiiiiiiiii",
"iiiOOOOOOOOOO  OOOOOO+iiiiiiiiiiiiiiiiiiiiiiiiiiiiiiii",
"iiiOOOOOOOOOO    OOOO+Oiiiiiiiiiiiiiiiiiiiiiiiiiiiiiii",
"iii OOOOOOOOO OO   OO   iiiiiiiiiiiiiiiiiiiiiiiiiiiiii",
"iii oOOOOOOO  OOOO      iiiiiiiiiiiiiiiiiiiiiiiiiiiiii",
"iii O+OOOOOO OOOOOOOOOOo iiiiiiiiiiiiiiiiiiiiiiiiiiiii",
"iiiiOOOOOOOO OOOOOOOOOOOOoiiiiiiiiiiiiiiiiiiiiiiiiiiii",
"iiii +OOOOO  OOOOOOOOOOOOOO+iiiiiiiiiiiiiiiiiiiiiiiiii",
"iiiii OO    OOOOOOOOOOOOOOOO+iiiiiiiiiiiiiiiiiiiiiiiii",
"iiiii   OOOOOOOOOOOOOOO OOO   iiiiiiiiiiiiiiiiiiiiiiii",
"iiiiiiOOOOOOOOOOOOOOOO  OOO   iiiiiiiiiiiiiiiiiiiiiiii",
"iiiiiiOoOOOOOOOOOOOOO  OOOOO > iiiiiiiiiiiiiiiiiiiiiii",
"iiiiiii+OOOOOOOOOOOO  OOO     5iiiiiiiiiiiiiiiiiiiiiii",
"iiiiiiiOoOOOOOOOOOOOO  OO     8iiiiiiiiiiiiiiiiiiiiiii",
"iiiiiiii OOOOOOOOOOOOO  OO   84qiiiiiiiiiiiiiiiiiiiiii",
"iiiiiiiii OOOOOOOOOOOOO  O i  95iiiiiiiiiiiiiiiiiiiiii",
"iiiiiiiiiii OOOOOOOOOOOO   ii  8iiiiiiiiiiiiiiiiiiiiii",
"iiiiiiiiiiii +OOOOOOOOOOOO  ii   iiiiiiiiiiiiiiiiiiiii",
"iiiiiiiiiiiii OO+OOOOOOOOOOO   iiiiiiiiiiiiiiiiiiiiiii",
"iiiiiiiiiiiiiii OOOOOOOOOOOOOO  iiiiiiiiiiiiiiiiiiiiii",
"iiiiiiiiiiiiiiii OOOOOOOOOOOOOO  iiiiiiiiiiiiiiiiiiiii",
"iiiiiiiiiiiiiiiii OOOOOOOOOOOOOO iiiiiiiiiiiiiiiiiiiii",
"iiiiiiiiiiiiiiiiii +OOOOOOOOOOOOOiiiiiiiiiiiiiiiiiiiii",
"iiiiiiiiiiiiiiiiiii OOOOOOOOOOOOOiiiiiiiiiiiiiiiiiiiii",
"iiiiiiiiiiiiiiiiiiii OO    OOOOOOiiiiiiiiiiiiiiiiiiiii",
"iiiiiiiiiiiiiiiiiiii     OOOOOOO iiiiiiiiiiiiiiiiiiiii",
"iiiiiiiiiiiiiiiiiiii OOOOOOOOOOO iiiiiiiiiiiiiiiiiiiii",
"iiiiiiiiiiiiiiiiiiiioOOOOOOOOOOOiiiiiiiiiiiiiiiiiiiiii",
"iiiiiiiiiiiiiiiiiiiiOOOOOOOOOOOoiiiiiiiiiiiiiiiiiiiiii",
"iiiiiiiiiiiiiiiiiii +OOOOOOOOOO iiiiiiiiiiiiiiiiiiiiii",
"iiiiiiiiiiiiiiiiiiiOOOOOOOOOOOo iiiiiiiiiiiiiiiiiiiiii",
"iiiiiiiiiiiiiiiiiiiOOOOOOOOOOOOiiiiiiiiiiiiiiiiiiiiiii",
"iiiiiiiiiiiiiiiiii OOOOOOOOOOO+iiiiiiiiiiiiiiiiiiiiiii",
"iiiiiiiiiiiiiiiiiiOOOOOOOOOOOO iiiiiiiiiiiiiiiiiiiiiii",
"iiiiiiiiiiiiiiiiiiOOOOOOOOOOOOiiiiiiiiiiiiiiiiiiiiiiii",
"iiiiiiiiiiiiiiiii +OOOOOOOO OOiiiiiiiiiiiiiiiiiiiiiiii",
"iiiiiiiiiiiiiiiiiOOOOOOOOO  Oiiiiiiiiiiiiiiiiiiiiiiiii",
"iiiiiiiiiiiiiiiiiOOOOOOOOO  Oiiiiiiiiiiiiiiiiiiiiiiiii",
"iiiiiiiiiiiiiiiiO+OOOOOOOO iiiiiiiiiiiiiiiiiiiiiiiiiii",
"iiiiiiiiiiiiiiiiOOOOOOOOOO iiiiiiiiiiiiiiiiiiiiiiiiiii",
"iiiiiiiiiiiiiii oOOOOOOOOO iiiiiiiiiiiiiiiiiiiiiiiiiii",
"iiiiiiiiiiiiiiiOOOOOOOOOO iiiiiiiiiiiiiiiiiiiiiiiiiiii",
"iiiiiiiiiiiiiiiOOOOOOOOOO iiiiiiiiiiiiiiiiiiiiiiiiiiii",
"iiiiiiiiiiiiiiiOOOOOO OOOiiiiiiiiiiiiiiiiiiiiiiiiiiiii",
"iiiiiiiiiiiiiiiOOOOO  OOOiiiiiiiiiiiiiiiiiiiiiiiiiiiii",
"iiiiiiiiiiiiiiiOOOOO  OOOiiiiiiiiiiiiiiiiiiiiiiiiiiiii",
"iiiiiiiiiiiiiiiOOOOO   O  iiiiiiiiiiiiiiiiiiiiiiiiiiii",
"iiiiiiiiiiiiiiiOOOO  >   %><iiiiiiiiiiiiiiiiiiiiiiiiii",
"iiiiiiiiiiiiiiiOOOO >>>>>>><;;iiiiiiiiiiiiiiiiiiiiiiii",
"iiiiiiiiiiiiiii     >>>>>>>>>>>2>#%iiiiiiiiiiiiiiiiiii",
"iiiiiiiiiiiiiiii  >>>>>>>>>>>>>>>#1>1iiiiiiiiiiiiiiiii",
"iiiiiiiiiiiiiiiii  >>>>>>>>>>>>>>><>>>%iiiiiiiiiiiiiii",
"iiiiiiiiiiiiiiiiii ><>>>>>>>>>>>>>>><>;iiiiiiiiiiiiiii",
"iiiiiiiiiiiiiiiiiii                    iiiiiiiiiiiiiii"
};
