/* XPM */
static char *result[] = {
/* columns rows colors chars-per-pixel */
"84 118 34 1 ",
"  c black",
". c #676654",
"X c #995D5D",
"o c #B0C87D",
"O c #B1C87D",
"+ c #B0C97D",
"@ c #B1C97D",
"# c #B1C87E",
"$ c #B0C97E",
"% c #B1C97E",
"& c #B1C87F",
"* c #B1C97F",
"= c #B2C97E",
"- c #B2C97F",
"; c #B1CA7E",
": c #B1CA7F",
"> c #B2CA7E",
", c #B2CA7F",
"< c #5C738D",
"1 c #5D738D",
"2 c #5C728E",
"3 c #5D728E",
"4 c #5C738E",
"5 c #5D738E",
"6 c #5C738F",
"7 c #5D738F",
"8 c #5E728E",
"9 c #5E738E",
"0 c #5D748E",
"q c #5D748F",
"w c #5E748E",
"e c #E1DEC1",
"r c #E1DFC1",
"t c None",
/* pixels */
"ttttttttttttttttttttt%*%:ttttttttttttttttttttttttttttttttttttttttttttttttttttttttttt",
"ttttttttttttttttt*;;=%%%%=;%Ottttttttttttttttttttttttttttttttttttttttttttttttttttttt",
"ttttttttttttttt%%=+%%%%%%%%%O=%%tttttttttttttttttttttttttttttttttttttttttttttttttttt",
"ttttttttttttt;;%%%%%%%%%%%%%%%%%=%Ottttttttttttttttttttttttttttttttttttttttttttttttt",
"ttttttttttt;;%%%%%%%%%%%%   %%%%%#%%@ttttttttttttttttttttttttttttttttttttttttttttttt",
"ttttttttt;;%%%%%%%%%%%%%%  %%%% %%=%%#tttttttttttttttttttttttttttttttttttttttttttttt",
"ttttttt%;%%%%%%%%%%%%%%%%%%%%%  %%%%%  ttttttttttttttttttttttttttttttttttttttttttttt",
"ttttt;=#%%%%%%%%%%%%%%%%      %%%%%%  %ttttttttttttttttttttttttttttttttttttttttttttt",
"tttt%%+@%%%%%%%%%%%%%%%%%%%%%%%%%%     %tttttttttttttttttttttttttttttttttttttttttttt",
"ttt#$%%%%%%%%%%%%%%%%%%%%%%%%%%%%  rrr   ttttttttttttttttttttttttttttttttttttttttttt",
"tt @%%%%%%%%%%%%%%%%     %        rrrrr  ttttttttttttttttttttttttttttttttttttttttttt",
"tt%%%%%%%%%%%%%%%           %%%% rrrrrre ttttttttttttttttttttttttttttttttttttttttttt",
"t%%%%%%%%%%%%%%%    %%%%%%% %%%% ...rrr  ttttttttttttttttttttttttttttttttttttttttttt",
"t%%%%%%%%%%%%%%%%%%% %%%%%%%  %% ....   %%tttttttttttttttttttttttttttttttttttttttttt",
"t%O%%%%%%%%%%%%%%%%% %%%%%%    %% .. %%%%;tttttttttttttttttttttttttttttttttttttttttt",
" ;@%%%%%%%%%%%%%%%%% %%%%   rr  %%  %%%%%% ttttttttttttttttttttttttttttttttttttttttt",
" %%%%%%%%%%%%%%%%%%% %%   rrrrr %%%  %%%%; %tttttttttttttttttttttttttttttttttttttttt",
" %%%%%%%%%%%%%%%%%%%    ..rrrrr %%%%  %%%%%$%ttttttttttttttttttttttttttttttttttttttt",
" ;%%%%%%%%%%%%%%%%%%%  ...rrrrr %%%%%  %%%%%$#tttttttttttttttttttttttttttttttttttttt",
" =%%%%%%%%%%%%%%%%%%%  ...rrrrr %%%%%% %%%%%%%*ttttttttttttttttttttttttttttttttttttt",
" %%%%%%%%%%%%%%%%%%%%% ...rrrr  %%%%%%  %%%%%@%ttttttttttttttttttttttttttttttttttttt",
" =%%%%%%%%   %%%%%%%%%   rrr   %%%%%%%  %%%%%% ttttttttttttttttttttttttttttttttttttt",
"t*O%%%%%%%%%  %%%%%%%%%%     % %%%%%   %%%     ttttttttttttttttttttttttttttttttttttt",
"t#%%%%%%%%%%% %%%%%%%%%%%%%%%  %%%%  %%%%      ttttttttttttttttttttttttttttttttttttt",
"t%%%%%%%%%%%% %%%%%%%%%%%%%%  %%%%%%%%%%       ttttttttttttttttttttttttttttttttttttt",
"t$%%%%%%%%%%%%%%%%%%%%%%%%%  %%%%%%%%%          tttttttttttttttttttttttttttttttttttt",
"t ;%%%%%%%%%%%%%%%%%% %%%%%%%%%%%%%%%          otttttttttttttttttttttttttttttttttttt",
"tt $%%%%%%%%%%%%%%%%%  %%%%%%%%%%%%%%       %%%%tttttttttttttttttttttttttttttttttttt",
"ttt $%%%%%%%%%%%%%%%%%  %%%%%%%%%%%  XXX   %%%@%tttttttttttttttttttttttttttttttttttt",
"tttt @%@%%%%%%%%%       %%%%%%%%%%  XXX  %%%$%# tttttttttttttttttttttttttttttttttttt",
"ttttt  ;%#%%%%%%  %%%%%  %%%%%%%%%%  X  %%O%> tttttttttttttttttttttttttttttttttttttt",
"ttttttt          %%%%%%%%  %%%%%%%%%   %;%%  ttttttttttttttttttttttttttttttttttttttt",
"tttttttttttttt  %%%%%%%%%%  %%%%%%%%%%%@% tttttttttttttttttttttttttttttttttttttttttt",
"tttttttttttttt %%%%%%%%%%%%   %%%%%%%%%@ ttttttttttttttttttttttttttttttttttttttttttt",
"tttttttttttttt %%%%%%%%%%%%%%  %%%%%%%   ttttttttttttttttttttttttttttttttttttttttttt",
"tttttttttttttt%%%%%%%%%%%%%%%%%    %   %tttttttttttttttttttttttt:%#=%:tttttttttttttt",
"tttttttttttttt%%%%%%%%%%%%%%%%%%%%   %%;=tttttttttttttttttt#*%;=%%O$%%#ttttttttttttt",
"tttttttttttttt-%%%%%%%%%%%%%%%%%%%%%   %%=  %%=----------;%;%%%%%%%%%%$Otttttttttttt",
"tttttttttttttt-%%%%%%%%%%%%%%%%%%%%%%%  %O %#%%%%%%%%%%%%%O@%%%%%%%%%%%%%%tttttttttt",
"tttttttttttttt-%%%%%%%   %%%%%%%%%%%%%%  %%%%%%%%%%%%%%%%%%%%%%%%%%%%%   O=,tttttttt",
"tttttttttttttt-%%%%%%% %      %%%%%%%%%%%                            %   %%%%-o@%%>#",
"tttttttttttttt-%%%%%%%%%%%%%%     %%%%%%%  %%%%%%%%%%%%%%%%%%%%%%%%%  %      %%=%%> ",
"tttttttttttttt-%%%%%%%%%%%%%%%%%%   %%%%  %%%%%%%%%%%%O%%%%#+%#@%%%%%   %%%%       t",
"tttttttttttttt-%%%%%%%%% %%%%%%% %%   %%%%%%%%%%%%;%=%%#         %%%%%   %%%%  ttttt",
"tttttttttttttt=%%%%%%%%% %%%%%%% %%%    %%%%%%%%%@%   ttttttttt  %%%%%   %%%%%  tttt",
"tttttttttttttt%%%%%%%%%% %%%%%%% %%% tt O%%%@%%=   ttttttttttttt %%%%%%%   %%@%#tttt",
"tttttttttttttt #%%%%%%%% %%%%%%% %=% tt  =+;@  tttttttttttttttt;  %%%%%%  t     tttt",
"ttttttttttttttt%O%%%%%%% % %%%%% %@# tttt    tttttttttttttttttt%%  %%%%%%%  tttttttt",
"ttttttttttttttt %%%%%%%% %%%%%%%%%= tttttttttttttttttttttttttttt%O   %%%%%% tttttttt",
"ttttttttttttttt @@%%%%%%    %%%%%% ttttttttttttttttttttttttttttt;%%%  %%%%%;tttttttt",
"tttttttttttttttt %%%%%%%%%  %%    tttttttttttttttttttttttttttttt%% %%%   %%-tttttttt",
"tttttttttttttttt #%%%% %%%%%%%%% ttttttttttttttttttttttttttttttt %  %%%%   -tttttttt",
"ttttttttttttttttt=%%%  %%  %%%%%tttttttttttttttttttttttttttttttt >@  %   %  tttttttt",
"ttttttttttttttttt %%%%%%  %%%%O%ttttttttttttttttttttttttttttttttt$    % %%% tttttttt",
"ttttttttttttttttt %%%%%% %%%% O%ttttttttttttttttttttttttttttttttt  t %% %%% tttttttt",
"ttttttttttttttttt ;;%%% %%%%% @> ttttttttttttttttttttttttttttttttttt %% %%; tttttttt",
"tttttttttttttttttt=O%%% %%%%%%%+%ttttttttttttttttttttttttttttttttttt @% %@% tttttttt",
"tttttttttttttttttt=%%%%%%%%%%%%@% tttttttttttttttttttttttttttttttttt +%  O%ttttttttt",
"ttttttttttttttttt $%%%%%%%%%%%%   wttttttttttttttttttttttttttttttttt %%  %%ttttttttt",
"ttttttttttttttttt  %%%%%%%%%     551ttttttttttttttttttttttttttttttttt%%   Ottttttttt",
"tttttttttttttttt15    %%%    555 555tttttttttttttttttttttttttttttttttt  t tttttttttt",
"tttttttttttttttt11555     555555 557tttttttttttttttttttttttttttttttttttttttttttttttt",
"ttttttttttttttt25355555555555555 557tttttttttttttttttttttttttttttttttttttttttttttttt",
"ttttttttttttttt05555555555555555 557tttttttttttttttttttttttttttttttttttttttttttttttt",
"ttttttttttttttt555555555555555555 57tttttttttttttttttttttttttttttttttttttttttttttttt",
"ttttttttttttttt 52555555555555555  7tttttttttttttttttttttttttttttttttttttttttttttttt",
"tttttttttttttttt 55555555555555555 5tttttttttttttttttttttttttttttttttttttttttttttttt",
"tttttttttttttttt 535555555555555535 tttttttttttttttttttttttttttttttttttttttttttttttt",
"ttttttttttttttttt53555555555 555554ttttttttttttttttttttttttttttttttttttttttttttttttt",
"ttttttttttttttttt 555555555 5555555ttttttttttttttttttttttttttttttttttttttttttttttttt",
"ttttttttttttttttt 125555555 555535 ttttttttttttttttttttttttttttttttttttttttttttttttt",
"tttttttttttttttttt05555555 555555 tttttttttttttttttttttttttttttttttttttttttttttttttt",
"tttttttttttttttttt 555555 5555555 tttttttttttttttttttttttttttttttttttttttttttttttttt",
"tttttttttttttttttt 15555  55555555tttttttttttttttttttttttttttttttttttttttttttttttttt",
"tttttttttttttttttt w35555555555555<ttttttttttttttttttttttttttttttttttttttttttttttttt",
"ttttttttttttttttttt4555555555555555wtttttttttttttttttttttttttttttttttttttttttttttttt",
"ttttttttttttttttttt74555555555555555tttttttttttttttttttttttttttttttttttttttttttttttt",
"ttttttttttttttttttt 55555555555555517ttttttttttttttttttttttttttttttttttttttttttttttt",
"ttttttttttttttttttt  5555555555555555ttttttttttttttttttttttttttttttttttttttttttttttt",
"tttttttttttttttttttt 3555555555555555<tttttttttttttttttttttttttttttttttttttttttttttt",
"tttttttttttttttttttt2 55555555555555557ttttttttttttttttttttttttttttttttttttttttttttt",
"tttttttttttttttttttt2  5555555555555555qtttttttttttttttttttttttttttttttttttttttttttt",
"tttttttttttttttttttt13  5555555555555540tttttttttttttttttttttttttttttttttttttttttttt",
"tttttttttttttttttttt555 5555555555555551wttttttttttttttttttttttttttttttttttttttttttt",
"ttttttttttttttttttt5555  5555555555555553ttttttttttttttttttttttttttttttttttttttttttt",
"ttttttttttttttttttt93555  555555555555555ttttttttttttttttttttttttttttttttttttttttttt",
"tttttttttttttttttt 155555  555555555555511tttttttttttttttttttttttttttttttttttttttttt",
"tttttttttttttttttt   55555  55555555555556tttttttttttttttttttttttttttttttttttttttttt",
"tttttttttttttttttO   55   5 55555555555540tttttttttttttttttttttttttttttttttttttttttt",
"tttttttttttttttt#$;%    % 5  5555555555539tttttttttttttttttttttttttttttttttttttttttt",
"ttttttttttttttt=%%%%%  %%  5 555555555553 tttttttttttttttttttttttttttttttttttttttttt",
"ttttttttttttttt%%%%%%%%%%     55555555530ttttttttttttttttttttttttttttttttttttttttttt",
"ttttttttttttttt=%%%%%%%   t   55555555552ttttttttttttttttttttttttttttttttttttttttttt",
"ttttttttttttttt-%%%%%%  ttttt 55555555557ttttttttttttttttttttttttttttttttttttttttttt",
"ttttttttttttttt;%%%%%% ttttt 555555555557ttttttttttttttttttttttttttttttttttttttttttt",
"ttttttttttttttt=%%%%%  ttttt 555555555557ttttttttttttttttttttttttttttttttttttttttttt",
"tttttttttttttt%%%%%%  ttttt  555555555557ttttttttttttttttttttttttttttttttttttttttttt",
"tttttttttttttt%%%%%  tttttt 5555555555557ttttttttttttttttttttttttttttttttttttttttttt",
"ttttttttttttt%#%%%% ttttttt 5555555555558ttttttttttttttttttttttttttttttttttttttttttt",
"ttttttttttttt%%%%% ttttttt 55555555555555ttttttttttttttttttttttttttttttttttttttttttt",
"ttttttttttttO=%%%  ttttttt 55555555555551wtttttttttttttttttttttttttttttttttttttttttt",
"tttttttttttt%%%%%    tttt  555555555555556tttttttttttttttttttttttttttttttttttttttttt",
"tttttttttttO%%%% %%%%  tt 5555555555555557tttttttttttttttttttttttttttttttttttttttttt",
"tttttttttt-$;%%  %%%%%%   5555555555555557tttttttttttttttttttttttttttttttttttttttttt",
"ttttttttt  %%%%%%%%%%%%%  5555555555555557tttttttttttttttttttttttttttttttttttttttttt",
"ttttttttt, %%%%%%%%%%%%% 55555555555555557tttttttttttttttttttttttttttttttttttttttttt",
"tttttttt%#  %%%%%%%%%%%% 55555555555555557tttttttttttttttttttttttttttttttttttttttttt",
"tttttttt%%%%%%%%%%%%%%% 55555555 555555557tttttttttttttttttttttttttttttttttttttttttt",
"ttttttt*$@%%%%%%%%%=%O@ 5555555  555555557tttttttttttttttttttttttttttttttttttttttttt",
"ttttttt%%#=@#=%%=O%      555555  55555555 tttttttttttttttttttttttttttttttttttttttttt",
"tttttttt          ttttt 355555 %  555555  tttttttttttttttttttttttttttttttttttttttttt",
"ttttttttttttttttttttttt  55555 %% 5555   ttttttttttttttttttttttttttttttttttttttttttt",
"tttttttttttttttttttttttt       %% 55   $ ttttttttttttttttttttttttttttttttttttttttttt",
"ttttttttttttttttttttttttt  %  %%%%   %%@% tttttttttttttttttttttttttttttttttttttttttt",
"ttttttttttttttttttttttttt $@%%%%%%%%%%%%O%% tttttttttttttttttttttttttttttttttttttttt",
"tttttttttttttttttttttttttt%%%%%%%%%%%%%%%%>=%%%%%%tttttttttttttttttttttttttttttttttt",
"tttttttttttttttttttttttttt&%%%%%%%%%%#%%%%%#>,,%>%tttttttttttttttttttttttttttttttttt",
"ttttttttttttttttttttttttttt=*=-----=%     tttttttttttttttttttttttttttttttttttttttttt"
};
